<?xml version="1.0" encoding="utf-8"?>
<!-- Generator: Adobe Illustrator 23.0.0, SVG Export Plug-In . SVG Version: 6.00 Build 0)  -->
<svg version="1.1" id="Layer_1" xmlns="http://www.w3.org/2000/svg" xmlns:xlink="http://www.w3.org/1999/xlink" x="0px" y="0px"
	 viewBox="0 0 32 32" style="enable-background:new 0 0 32 32;" xml:space="preserve">
<style type="text/css">
	.st0{fill:url(#SVGID_1_);}
	.st1{fill:#FFFFFF;}
</style>
<linearGradient id="SVGID_1_" gradientUnits="userSpaceOnUse" x1="-4.452995e-02" y1="17.933" x2="32.06" y2="18.067" gradientTransform="matrix(1 0 0 -1 0 34)">
	<stop  offset="0" style="stop-color:#20BF6B"/>
	<stop  offset="1" style="stop-color:#20BF6B"/>
</linearGradient>
<path class="st0" d="M32,16c0,3.8-1.4,7.4-3.6,10.2C25.4,29.7,21,32,16,32l0,0c-5,0-9.5-2.3-12.4-5.9C1.3,23.3,0,19.8,0,16
	C0,7.2,7.2,0,16,0S32,7.2,32,16z"/>
<g>
	<path class="st1" d="M28.4,26.2C25.4,29.7,21,32,16,32l0,0c-5,0-9.5-2.3-12.4-5.9c0.6-2.9,2.1-6.4,5.8-8.4c1.2,2.8,3.5,5,6.6,5
		c2.6,0,5.2-2.3,6.4-5.1C26.2,19.6,27.8,23.3,28.4,26.2z"/>
	<path class="st1" d="M16,19.8c3.3,0,6-4.8,6-8.7S19.3,4,16,4s-6,3.2-6,7.1C9.9,15,12.7,19.8,16,19.8z"/>
</g>
</svg>
